0
SECTION
2
HEADER
9
$INSUNITS
70
1
9
$ACADVER
1
AC1014
9
$HANDSEED
5
FFFF
0
ENDSEC
0
SECTION
2
TABLES
0
TABLE
2
VPORT
5
8
100
AcDbSymbolTable
0
ENDTAB
0
TABLE
2
LTYPE
5
5
100
AcDbSymbolTable
0
LTYPE
5
14
100
AcDbSymbolTableRecord
100
AcDbLinetypeTableRecord
2
BYBLOCK
70
0
0
LTYPE
5
15
100
AcDbSymbolTableRecord
100
AcDbLinetypeTableRecord
2
BYLAYER
70
0
0
ENDTAB
0
TABLE
2
LAYER
5
2
100
AcDbSymbolTable
70
2
0
LAYER
5
50
100
AcDbSymbolTableRecord
100
AcDbLayerTableRecord
2
0
70
0
6
CONTINUOUS
0
ENDTAB
0
TABLE
2
STYLE
5
3
100
AcDbSymbolTable
70
1
0
STYLE
5
11
100
AcDbSymbolTableRecord
100
AcDbTextStyleTableRecord
2
STANDARD
70
0
0
ENDTAB
0
TABLE
2
VIEW
5
6
100
AcDbSymbolTable
70
0
0
ENDTAB
0
TABLE
2
UCS
5
7
100
AcDbSymbolTable
70
0
0
ENDTAB
0
TABLE
2
APPID
5
9
100
AcDbSymbolTable
70
2
0
APPID
5
12
100
AcDbSymbolTableRecord
100
AcDbRegAppTableRecord
2
ACAD
70
0
0
ENDTAB
0
TABLE
2
DIMSTYLE
5
A
100
AcDbSymbolTable
70
1
0
ENDTAB
0
TABLE
2
BLOCK_RECORD
5
1
100
AcDbSymbolTable
70
1
0
BLOCK_RECORD
5
1F
100
AcDbSymbolTableRecord
100
AcDbBlockTableRecord
2
*MODEL_SPACE
0
BLOCK_RECORD
5
1B
100
AcDbSymbolTableRecord
100
AcDbBlockTableRecord
2
*PAPER_SPACE
0
ENDTAB
0
ENDSEC
0
SECTION
2
BLOCKS
0
BLOCK
5
20
100
AcDbEntity
100
AcDbBlockBegin
2
*MODEL_SPACE
0
ENDBLK
5
21
100
AcDbEntity
100
AcDbBlockEnd
0
BLOCK
5
1C
100
AcDbEntity
100
AcDbBlockBegin
2
*PAPER_SPACE
0
ENDBLK
5
1D
100
AcDbEntity
100
AcDbBlockEnd
0
ENDSEC
0
SECTION
2
ENTITIES
0
LWPOLYLINE
5
100
100
AcDbEntity
8
0
100
AcDbPolyline
90
4
70
1
43
0.0
10
0.18713203435596334
20
-4.6152242426716183
42
0.45007923395631388
10
-0.18713203435596473
20
-4.6152242426716183
10
-0.4645581553809523
20
-4.4550521970176078
42
-0.51996115926439568
10
0.46455815538095091
20
-4.4550521970176078
0
LWPOLYLINE
5
101
100
AcDbEntity
8
0
100
AcDbPolyline
90
4
70
1
43
0.0
10
0.23713203435596356
20
-4.7018267830500617
10
0.51455815538095062
20
-4.5416547373960521
42
-0.51996115926439612
10
0.049999999999999253
20
-5.3462930655863374
10
0.049999999999999295
20
-5.0259489742783172
42
0.45007923395631511
0
CIRCLE
5
102
100
AcDbEntity
8
0
100
AcDbCircle
10
0.70710678118654791
20
-4.0738932188134518
30
0
40
0.11437499999999999
210
0
220
-0
230
1
0
CIRCLE
5
103
100
AcDbEntity
8
0
100
AcDbCircle
10
-0.70710678118654646
20
-5.4881067811865467
30
0
40
0.11437499999999999
210
0
220
-0
230
1
0
CIRCLE
5
104
100
AcDbEntity
8
0
100
AcDbCircle
10
6.9935308637805131e-16
20
-3.7809999999999993
30
0
40
0.11437499999999995
210
0
220
-0
230
1
0
CIRCLE
5
105
100
AcDbEntity
8
0
100
AcDbCircle
10
6.9935308637805131e-16
20
-5.7809999999999997
30
0
40
0.11437499999999995
210
0
220
-0
230
1
0
CIRCLE
5
106
100
AcDbEntity
8
0
100
AcDbCircle
10
-0.70710678118654702
20
-4.0738932188134518
30
0
40
0.11437499999999999
210
0
220
-0
230
1
0
CIRCLE
5
107
100
AcDbEntity
8
0
100
AcDbCircle
10
0.70710678118654824
20
-5.4881067811865467
30
0
40
0.11437499999999999
210
0
220
-0
230
1
0
LWPOLYLINE
5
108
100
AcDbEntity
8
0
100
AcDbPolyline
90
4
70
1
43
0.0
10
-1.1249999999999998
20
-3.5619999999999998
10
-1.1249999999999998
20
-5.9999999999999991
10
1.1249999999999998
20
-5.9999999999999991
10
1.125
20
-3.5619999999999998
0
LWPOLYLINE
5
109
100
AcDbEntity
8
0
100
AcDbPolyline
90
4
70
1
43
0.0
10
-0.050000000000000697
20
-5.0259489742783172
10
-0.050000000000000655
20
-5.3462930655863374
42
-0.51996115926439612
10
-0.51455815538095229
20
-4.5416547373960521
10
-0.23713203435596472
20
-4.7018267830500617
42
0.45007923395631527
0
CIRCLE
5
110
100
AcDbEntity
8
0
100
AcDbCircle
10
-6.9935308637805131e-16
20
-4.7809999999999997
30
0
40
0.11437499999999999
210
0
220
-0
230
1
0
LWPOLYLINE
5
111
100
AcDbEntity
8
0
100
AcDbPolyline
90
4
70
1
43
0.0
10
1.1249999999999998
20
-5.9999999999999991
10
1.125
20
-3.5619999999999998
10
-1.1249999999999998
20
-3.5619999999999998
10
-1.1249999999999998
20
-5.9999999999999991
0
CIRCLE
5
112
100
AcDbEntity
8
0
100
AcDbCircle
10
6.9935308637805131e-16
20
-5.7809999999999997
30
0
40
0.11437499999999995
210
0
220
-0
230
1
0
CIRCLE
5
113
100
AcDbEntity
8
0
100
AcDbCircle
10
0.70710678118654824
20
-5.4881067811865467
30
0
40
0.11437499999999999
210
0
220
-0
230
1
0
CIRCLE
5
114
100
AcDbEntity
8
0
100
AcDbCircle
10
-0.70710678118654646
20
-5.4881067811865467
30
0
40
0.11437499999999999
210
0
220
-0
230
1
0
CIRCLE
5
115
100
AcDbEntity
8
0
100
AcDbCircle
10
-0.70710678118654702
20
-4.0738932188134518
30
0
40
0.11437499999999999
210
0
220
-0
230
1
0
CIRCLE
5
116
100
AcDbEntity
8
0
100
AcDbCircle
10
6.9935308637805131e-16
20
-3.7809999999999993
30
0
40
0.11437499999999995
210
0
220
-0
230
1
0
CIRCLE
5
117
100
AcDbEntity
8
0
100
AcDbCircle
10
0.70710678118654791
20
-4.0738932188134518
30
0
40
0.11437499999999999
210
0
220
-0
230
1
0
CIRCLE
5
118
100
AcDbEntity
8
0
100
AcDbCircle
10
-6.9935308637805131e-16
20
-4.7809999999999997
30
0
40
0.56749999999999978
210
0
220
0
230
1
0
ENDSEC
0
SECTION
2
OBJECTS
0
DICTIONARY
5
C
100
AcDbDictionary
3
ACAD_GROUP
350
D
3
ACAD_MLINESTYLE
350
17
0
DICTIONARY
5
D
100
AcDbDictionary
0
DICTIONARY
5
1A
330
C
100
AcDbDictionary
0
DICTIONARY
5
17
100
AcDbDictionary
0
ENDSEC
0
EOF
