0
SECTION
2
HEADER
9
$INSUNITS
70
1
9
$ACADVER
1
AC1014
9
$HANDSEED
5
FFFF
0
ENDSEC
0
SECTION
2
TABLES
0
TABLE
2
VPORT
5
8
100
AcDbSymbolTable
0
ENDTAB
0
TABLE
2
LTYPE
5
5
100
AcDbSymbolTable
0
LTYPE
5
14
100
AcDbSymbolTableRecord
100
AcDbLinetypeTableRecord
2
BYBLOCK
70
0
0
LTYPE
5
15
100
AcDbSymbolTableRecord
100
AcDbLinetypeTableRecord
2
BYLAYER
70
0
0
ENDTAB
0
TABLE
2
LAYER
5
2
100
AcDbSymbolTable
70
2
0
LAYER
5
50
100
AcDbSymbolTableRecord
100
AcDbLayerTableRecord
2
0
70
0
6
CONTINUOUS
0
ENDTAB
0
TABLE
2
STYLE
5
3
100
AcDbSymbolTable
70
1
0
STYLE
5
11
100
AcDbSymbolTableRecord
100
AcDbTextStyleTableRecord
2
STANDARD
70
0
0
ENDTAB
0
TABLE
2
VIEW
5
6
100
AcDbSymbolTable
70
0
0
ENDTAB
0
TABLE
2
UCS
5
7
100
AcDbSymbolTable
70
0
0
ENDTAB
0
TABLE
2
APPID
5
9
100
AcDbSymbolTable
70
2
0
APPID
5
12
100
AcDbSymbolTableRecord
100
AcDbRegAppTableRecord
2
ACAD
70
0
0
ENDTAB
0
TABLE
2
DIMSTYLE
5
A
100
AcDbSymbolTable
70
1
0
ENDTAB
0
TABLE
2
BLOCK_RECORD
5
1
100
AcDbSymbolTable
70
1
0
BLOCK_RECORD
5
1F
100
AcDbSymbolTableRecord
100
AcDbBlockTableRecord
2
*MODEL_SPACE
0
BLOCK_RECORD
5
1B
100
AcDbSymbolTableRecord
100
AcDbBlockTableRecord
2
*PAPER_SPACE
0
ENDTAB
0
ENDSEC
0
SECTION
2
BLOCKS
0
BLOCK
5
20
100
AcDbEntity
100
AcDbBlockBegin
2
*MODEL_SPACE
0
ENDBLK
5
21
100
AcDbEntity
100
AcDbBlockEnd
0
BLOCK
5
1C
100
AcDbEntity
100
AcDbBlockBegin
2
*PAPER_SPACE
0
ENDBLK
5
1D
100
AcDbEntity
100
AcDbBlockEnd
0
ENDSEC
0
SECTION
2
ENTITIES
0
CIRCLE
5
100
100
AcDbEntity
8
0
100
AcDbCircle
10
-4.4999999999999991
20
3.5
30
0
40
0.11050000000000024
210
0
220
0
230
1
0
LWPOLYLINE
5
101
100
AcDbEntity
8
0
100
AcDbPolyline
90
4
70
1
43
0.0
10
-6.6403098978933413
20
-3.5970710932964223
42
0.99999999999999989
10
-6.4353098978933394
20
-3.9521415088480443
10
-6.1668420227201644
20
-3.7971415088480422
42
0.99999999999999989
10
-6.3718420227201635
20
-3.4420710932964234
0
CIRCLE
5
102
100
AcDbEntity
8
0
100
AcDbCircle
10
-2.5000000000000004
20
-7.5
30
0
40
0.11049999999999989
210
0
220
0
230
1
0
CIRCLE
5
103
100
AcDbEntity
8
0
100
AcDbCircle
10
-0.49999999999999989
20
-7.5
30
0
40
0.11049999999999999
210
0
220
0
230
1
0
CIRCLE
5
104
100
AcDbEntity
8
0
100
AcDbCircle
10
-6.5
20
-4.4999999999999991
30
0
40
0.11050000000000024
210
0
220
0
230
1
0
CIRCLE
5
105
100
AcDbEntity
8
0
100
AcDbCircle
10
-6.5
20
-1.5
30
0
40
0.11050000000000024
210
0
220
0
230
1
0
CIRCLE
5
106
100
AcDbEntity
8
0
100
AcDbCircle
10
7.5000000000000275
20
5.4999999999999787
30
0
40
0.11050000000000024
210
0
220
0
230
1
0
CIRCLE
5
107
100
AcDbEntity
8
0
100
AcDbCircle
10
6.5000000000000142
20
0.49999999999998163
30
0
40
0.11050000000000024
210
0
220
0
230
1
0
CIRCLE
5
108
100
AcDbEntity
8
0
100
AcDbCircle
10
7.5000000000000302
20
6.4999999999999787
30
0
40
0.11050000000000024
210
0
220
0
230
1
0
CIRCLE
5
109
100
AcDbEntity
8
0
100
AcDbCircle
10
3.5000000000000266
20
4.4999999999999893
30
0
40
0.11050000000000024
210
0
220
0
230
1
0
CIRCLE
5
110
100
AcDbEntity
8
0
100
AcDbCircle
10
-5.6717844941089002
20
-3.2746063010722337
30
0
40
0.062499999999999799
210
0
220
0
230
1
0
CIRCLE
5
111
100
AcDbEntity
8
0
100
AcDbCircle
10
-3.2746063010722342
20
-5.6717844941088993
30
0
40
0.062499999999999799
210
0
220
0
230
1
0
CIRCLE
5
112
100
AcDbEntity
8
0
100
AcDbCircle
10
-5.5
20
1.5
30
0
40
0.11050000000000024
210
0
220
0
230
1
0
CIRCLE
5
113
100
AcDbEntity
8
0
100
AcDbCircle
10
-0.49999999999999994
20
7.5
30
0
40
0.11049999999999999
210
0
220
0
230
1
0
CIRCLE
5
114
100
AcDbEntity
8
0
100
AcDbCircle
10
-7.5
20
2.5000000000000004
30
0
40
0.11050000000000024
210
0
220
0
230
1
0
CIRCLE
5
115
100
AcDbEntity
8
0
100
AcDbCircle
10
-2.5000000000000004
20
6.5
30
0
40
0.11049999999999989
210
0
220
0
230
1
0
CIRCLE
5
116
100
AcDbEntity
8
0
100
AcDbCircle
10
-6.5
20
4.4999999999999991
30
0
40
0.11050000000000024
210
0
220
0
230
1
0
CIRCLE
5
117
100
AcDbEntity
8
0
100
AcDbCircle
10
2.5000000000000298
20
5.4999999999999929
30
0
40
0.11049999999999989
210
0
220
0
230
1
0
CIRCLE
5
118
100
AcDbEntity
8
0
100
AcDbCircle
10
-7.5
20
1.5
30
0
40
0.11050000000000024
210
0
220
0
230
1
0
CIRCLE
5
119
100
AcDbEntity
8
0
100
AcDbCircle
10
-3.4454066896093571e-14
20
5.0984251968503997
30
0
40
0.1105
210
0
220
0
230
1
0
CIRCLE
5
120
100
AcDbEntity
8
0
100
AcDbCircle
10
5.0984251968504202
20
-2.8309559971761479e-14
30
0
40
0.11050000000000024
210
0
220
0
230
1
0
CIRCLE
5
121
100
AcDbEntity
8
0
100
AcDbCircle
10
6.9826034718058561e-15
20
3.1798710646252019e-15
30
0
40
4.8622047244094473
210
0
220
0
230
1
0
CIRCLE
5
122
100
AcDbEntity
8
0
100
AcDbCircle
10
0.50000000000006628
20
-5.4999999999999885
30
0
40
0.11049999999999999
210
0
220
0
230
1
0
CIRCLE
5
123
100
AcDbEntity
8
0
100
AcDbCircle
10
5.5000000000000471
20
-3.4999999999999396
30
0
40
0.11050000000000024
210
0
220
0
230
1
0
CIRCLE
5
124
100
AcDbEntity
8
0
100
AcDbCircle
10
3.5000000000000662
20
-5.4999999999999591
30
0
40
0.11050000000000024
210
0
220
0
230
1
0
CIRCLE
5
125
100
AcDbEntity
8
0
100
AcDbCircle
10
2.5000000000000862
20
-7.4999999999999707
30
0
40
0.11049999999999989
210
0
220
0
230
1
0
CIRCLE
5
126
100
AcDbEntity
8
0
100
AcDbCircle
10
6.500000000000056
20
-4.4999999999999307
30
0
40
0.11050000000000024
210
0
220
0
230
1
0
CIRCLE
5
127
100
AcDbEntity
8
0
100
AcDbCircle
10
3.5000000000000759
20
-6.4999999999999627
30
0
40
0.11050000000000024
210
0
220
0
230
1
0
CIRCLE
5
128
100
AcDbEntity
8
0
100
AcDbCircle
10
6.5000000000000844
20
-7.4999999999999307
30
0
40
0.11050000000000024
210
0
220
0
230
1
0
CIRCLE
5
129
100
AcDbEntity
8
0
100
AcDbCircle
10
6.5000000000000266
20
-1.4999999999999316
30
0
40
0.11050000000000024
210
0
220
0
230
1
0
CIRCLE
5
130
100
AcDbEntity
8
0
100
AcDbCircle
10
5.5000000000000373
20
-2.4999999999999418
30
0
40
0.11050000000000024
210
0
220
0
230
1
0
CIRCLE
5
131
100
AcDbEntity
8
0
100
AcDbCircle
10
0
20
-5.0984251968503926
30
0
40
0.1105
210
0
220
0
230
1
0
CIRCLE
5
132
100
AcDbEntity
8
0
100
AcDbCircle
10
-6.5
20
-5.5
30
0
40
0.11050000000000024
210
0
220
0
230
1
0
CIRCLE
5
133
100
AcDbEntity
8
0
100
AcDbCircle
10
-6.133803546947231
20
-3.9743658274913982
30
0
40
0.11050000000000024
210
0
220
0
230
1
0
CIRCLE
5
134
100
AcDbEntity
8
0
100
AcDbCircle
10
-3.3248467746530692
20
-6.508803546947231
30
0
40
0.11050000000000024
210
0
220
0
230
1
0
CIRCLE
5
135
100
AcDbEntity
8
0
100
AcDbCircle
10
-3.9743658274913982
20
-6.1338035469472301
30
0
40
0.11050000000000024
210
0
220
0
230
1
0
CIRCLE
5
136
100
AcDbEntity
8
0
100
AcDbCircle
10
-6.508803546947231
20
-3.3248467746530692
30
0
40
0.11050000000000024
210
0
220
0
230
1
0
CIRCLE
5
137
100
AcDbEntity
8
0
100
AcDbCircle
10
-5.3308296016416135
20
-3.0777559055118102
30
0
40
0.1774803149606296
210
0
220
0
230
1
0
LWPOLYLINE
5
138
100
AcDbEntity
8
0
100
AcDbPolyline
90
4
70
1
43
0.0
10
-3.9521415088480412
20
-6.4353098978933412
42
0.99999998946328772
10
-3.5970710932964258
20
-6.6403098978933404
10
-3.4420710932964238
20
-6.3718420227201635
42
0.99999999999999989
10
-3.7971415088480436
20
-6.1668420227201626
0
CIRCLE
5
139
100
AcDbEntity
8
0
100
AcDbCircle
10
-3.0777559055118102
20
-5.3308296016416135
30
0
40
0.17748031496062994
210
0
220
0
230
1
0
CIRCLE
5
140
100
AcDbEntity
8
0
100
AcDbCircle
10
6.5000000000000657
20
-5.4999999999999316
30
0
40
0.11050000000000024
210
0
220
0
230
1
0
CIRCLE
5
141
100
AcDbEntity
8
0
100
AcDbCircle
10
5.5000000000000853
20
-7.4999999999999423
30
0
40
0.11050000000000024
210
0
220
0
230
1
0
CIRCLE
5
142
100
AcDbEntity
8
0
100
AcDbCircle
10
7.5000000000000169
20
-0.49999999999992178
30
0
40
0.11050000000000024
210
0
220
0
230
1
0
CIRCLE
5
143
100
AcDbEntity
8
0
100
AcDbCircle
10
7.5000000000000657
20
-5.4999999999999218
30
0
40
0.11050000000000024
210
0
220
0
230
1
0
CIRCLE
5
144
100
AcDbEntity
8
0
100
AcDbCircle
10
3.5000000000000853
20
-7.4999999999999618
30
0
40
0.11050000000000024
210
0
220
0
230
1
0
CIRCLE
5
145
100
AcDbEntity
8
0
100
AcDbCircle
10
3.5000000000000564
20
-4.4999999999999591
30
0
40
0.11050000000000024
210
0
220
0
230
1
0
CIRCLE
5
146
100
AcDbEntity
8
0
100
AcDbCircle
10
5.5000000000000764
20
-6.4999999999999432
30
0
40
0.11050000000000024
210
0
220
0
230
1
0
CIRCLE
5
147
100
AcDbEntity
8
0
100
AcDbCircle
10
4.5000000000000471
20
-3.4999999999999494
30
0
40
0.11050000000000024
210
0
220
0
230
1
0
CIRCLE
5
148
100
AcDbEntity
8
0
100
AcDbCircle
10
0.50000000000007583
20
-6.4999999999999902
30
0
40
0.11049999999999999
210
0
220
0
230
1
0
CIRCLE
5
149
100
AcDbEntity
8
0
100
AcDbCircle
10
-3.5
20
-7.5
30
0
40
0.11050000000000024
210
0
220
0
230
1
0
CIRCLE
5
150
100
AcDbEntity
8
0
100
AcDbCircle
10
-6.5
20
1.5
30
0
40
0.11050000000000024
210
0
220
0
230
1
0
CIRCLE
5
151
100
AcDbEntity
8
0
100
AcDbCircle
10
-5.5
20
5.5
30
0
40
0.11050000000000024
210
0
220
0
230
1
0
CIRCLE
5
152
100
AcDbEntity
8
0
100
AcDbCircle
10
-3.5
20
5.5
30
0
40
0.11050000000000024
210
0
220
0
230
1
0
CIRCLE
5
153
100
AcDbEntity
8
0
100
AcDbCircle
10
-3.5
20
7.5
30
0
40
0.11050000000000024
210
0
220
0
230
1
0
CIRCLE
5
154
100
AcDbEntity
8
0
100
AcDbCircle
10
-5.5
20
7.5
30
0
40
0.11050000000000024
210
0
220
0
230
1
0
CIRCLE
5
155
100
AcDbEntity
8
0
100
AcDbCircle
10
-1.5
20
7.5
30
0
40
0.11050000000000007
210
0
220
0
230
1
0
CIRCLE
5
156
100
AcDbEntity
8
0
100
AcDbCircle
10
-7.5
20
7.5
30
0
40
0.11050000000000024
210
0
220
0
230
1
0
CIRCLE
5
157
100
AcDbEntity
8
0
100
AcDbCircle
10
-1.5
20
6.5
30
0
40
0.11050000000000007
210
0
220
0
230
1
0
CIRCLE
5
158
100
AcDbEntity
8
0
100
AcDbCircle
10
6.5000000000000249
20
4.4999999999999813
30
0
40
0.11050000000000024
210
0
220
0
230
1
0
CIRCLE
5
159
100
AcDbEntity
8
0
100
AcDbCircle
10
-4.1786558750767968
20
-4.1786558750767995
30
0
40
0.11050000000000024
210
0
220
0
230
1
0
CIRCLE
5
160
100
AcDbEntity
8
0
100
AcDbCircle
10
-4.8857626562633438
20
-3.8857626562633483
30
0
40
0.11050000000000024
210
0
220
0
230
1
0
CIRCLE
5
161
100
AcDbEntity
8
0
100
AcDbCircle
10
-5.8857626562633438
20
-4.8857626562633474
30
0
40
0.11050000000000024
210
0
220
0
230
1
0
CIRCLE
5
162
100
AcDbEntity
8
0
100
AcDbCircle
10
-5.5928694374498917
20
-4.1786558750767995
30
0
40
0.11050000000000024
210
0
220
0
230
1
0
CIRCLE
5
163
100
AcDbEntity
8
0
100
AcDbCircle
10
-5.5928694374498917
20
-5.5928694374498944
30
0
40
0.11050000000000024
210
0
220
0
230
1
0
CIRCLE
5
164
100
AcDbEntity
8
0
100
AcDbCircle
10
-3.8857626562633447
20
-4.8857626562633474
30
0
40
0.11050000000000024
210
0
220
0
230
1
0
CIRCLE
5
165
100
AcDbEntity
8
0
100
AcDbCircle
10
-4.8857626562633438
20
-5.8857626562633465
30
0
40
0.11050000000000024
210
0
220
0
230
1
0
CIRCLE
5
166
100
AcDbEntity
8
0
100
AcDbCircle
10
-3.5
20
6.5
30
0
40
0.11050000000000024
210
0
220
0
230
1
0
CIRCLE
5
167
100
AcDbEntity
8
0
100
AcDbCircle
10
-4.1786558750767968
20
-5.5928694374498944
30
0
40
0.11050000000000024
210
0
220
0
230
1
0
CIRCLE
5
168
100
AcDbEntity
8
0
100
AcDbCircle
10
-1.5
20
-7.5
30
0
40
0.11050000000000007
210
0
220
0
230
1
0
CIRCLE
5
169
100
AcDbEntity
8
0
100
AcDbCircle
10
-7.5
20
4.4999999999999991
30
0
40
0.11050000000000024
210
0
220
0
230
1
0
CIRCLE
5
170
100
AcDbEntity
8
0
100
AcDbCircle
10
3.500000000000032
20
6.4999999999999902
30
0
40
0.11050000000000024
210
0
220
0
230
1
0
CIRCLE
5
171
100
AcDbEntity
8
0
100
AcDbCircle
10
-7.5
20
6.5
30
0
40
0.11050000000000024
210
0
220
0
230
1
0
CIRCLE
5
172
100
AcDbEntity
8
0
100
AcDbCircle
10
-4.4999999999999991
20
4.4999999999999991
30
0
40
0.11050000000000024
210
0
220
0
230
1
0
CIRCLE
5
173
100
AcDbEntity
8
0
100
AcDbCircle
10
4.5000000000000346
20
7.4999999999999867
30
0
40
0.11050000000000024
210
0
220
0
230
1
0
CIRCLE
5
174
100
AcDbEntity
8
0
100
AcDbCircle
10
5.5000000000000151
20
0.4999999999999844
30
0
40
0.11050000000000024
210
0
220
0
230
1
0
CIRCLE
5
175
100
AcDbEntity
8
0
100
AcDbCircle
10
7.5000000000000222
20
3.4999999999999791
30
0
40
0.11050000000000024
210
0
220
0
230
1
0
CIRCLE
5
176
100
AcDbEntity
8
0
100
AcDbCircle
10
-1.5
20
5.5
30
0
40
0.11050000000000007
210
0
220
0
230
1
0
CIRCLE
5
177
100
AcDbEntity
8
0
100
AcDbCircle
10
-3.5
20
4.4999999999999991
30
0
40
0.11050000000000024
210
0
220
0
230
1
0
CIRCLE
5
178
100
AcDbEntity
8
0
100
AcDbCircle
10
6.5000000000000195
20
2.4999999999999822
30
0
40
0.11050000000000024
210
0
220
0
230
1
0
CIRCLE
5
179
100
AcDbEntity
8
0
100
AcDbCircle
10
-5.5
20
4.4999999999999991
30
0
40
0.11050000000000024
210
0
220
0
230
1
0
CIRCLE
5
180
100
AcDbEntity
8
0
100
AcDbCircle
10
-4.4999999999999991
20
7.5
30
0
40
0.11050000000000024
210
0
220
0
230
1
0
CIRCLE
5
181
100
AcDbEntity
8
0
100
AcDbCircle
10
-5.5
20
6.5
30
0
40
0.11050000000000024
210
0
220
0
230
1
0
CIRCLE
5
182
100
AcDbEntity
8
0
100
AcDbCircle
10
-4.4999999999999991
20
6.5
30
0
40
0.11050000000000024
210
0
220
0
230
1
0
CIRCLE
5
183
100
AcDbEntity
8
0
100
AcDbCircle
10
-2.5000000000000004
20
7.5
30
0
40
0.11049999999999989
210
0
220
0
230
1
0
CIRCLE
5
184
100
AcDbEntity
8
0
100
AcDbCircle
10
7.5000000000000133
20
0.49999999999997879
30
0
40
0.11050000000000024
210
0
220
0
230
1
0
CIRCLE
5
185
100
AcDbEntity
8
0
100
AcDbCircle
10
5.500000000000024
20
3.4999999999999845
30
0
40
0.11050000000000024
210
0
220
0
230
1
0
CIRCLE
5
186
100
AcDbEntity
8
0
100
AcDbCircle
10
7.5000000000000169
20
1.4999999999999791
30
0
40
0.11050000000000024
210
0
220
0
230
1
0
CIRCLE
5
187
100
AcDbEntity
8
0
100
AcDbCircle
10
6.5000000000000169
20
1.4999999999999818
30
0
40
0.11050000000000024
210
0
220
0
230
1
0
CIRCLE
5
188
100
AcDbEntity
8
0
100
AcDbCircle
10
-0.49999999999999978
20
6.5
30
0
40
0.11049999999999999
210
0
220
0
230
1
0
CIRCLE
5
189
100
AcDbEntity
8
0
100
AcDbCircle
10
-6.5
20
6.5
30
0
40
0.11050000000000024
210
0
220
0
230
1
0
CIRCLE
5
190
100
AcDbEntity
8
0
100
AcDbCircle
10
-6.5
20
7.5
30
0
40
0.11050000000000024
210
0
220
0
230
1
0
CIRCLE
5
191
100
AcDbEntity
8
0
100
AcDbCircle
10
-0.49999999999999978
20
5.5
30
0
40
0.11049999999999999
210
0
220
0
230
1
0
CIRCLE
5
192
100
AcDbEntity
8
0
100
AcDbCircle
10
-7.5
20
-4.4999999999999991
30
0
40
0.11050000000000024
210
0
220
0
230
1
0
CIRCLE
5
193
100
AcDbEntity
8
0
100
AcDbCircle
10
-7.5
20
-7.5
30
0
40
0.11050000000000024
210
0
220
0
230
1
0
CIRCLE
5
194
100
AcDbEntity
8
0
100
AcDbCircle
10
-7.5
20
-6.5
30
0
40
0.11050000000000024
210
0
220
0
230
1
0
CIRCLE
5
195
100
AcDbEntity
8
0
100
AcDbCircle
10
-7.5
20
-2.5000000000000004
30
0
40
0.11050000000000024
210
0
220
0
230
1
0
CIRCLE
5
196
100
AcDbEntity
8
0
100
AcDbCircle
10
-5.5
20
-7.5
30
0
40
0.11050000000000024
210
0
220
0
230
1
0
CIRCLE
5
197
100
AcDbEntity
8
0
100
AcDbCircle
10
-2.5000000000000004
20
-6.5
30
0
40
0.11049999999999989
210
0
220
0
230
1
0
CIRCLE
5
198
100
AcDbEntity
8
0
100
AcDbCircle
10
-7.5
20
-0.49999999999999978
30
0
40
0.11050000000000024
210
0
220
0
230
1
0
CIRCLE
5
199
100
AcDbEntity
8
0
100
AcDbCircle
10
-5.5
20
-6.5
30
0
40
0.11050000000000024
210
0
220
0
230
1
0
CIRCLE
5
200
100
AcDbEntity
8
0
100
AcDbCircle
10
-7.5
20
-5.5
30
0
40
0.11050000000000024
210
0
220
0
230
1
0
CIRCLE
5
201
100
AcDbEntity
8
0
100
AcDbCircle
10
-5.098425196850406
20
-1.404716238342164e-14
30
0
40
0.11050000000000024
210
0
220
0
230
1
0
CIRCLE
5
202
100
AcDbEntity
8
0
100
AcDbCircle
10
-7.5
20
-1.5
30
0
40
0.11050000000000024
210
0
220
0
230
1
0
CIRCLE
5
203
100
AcDbEntity
8
0
100
AcDbCircle
10
-7.5
20
-3.5
30
0
40
0.11050000000000024
210
0
220
0
230
1
0
CIRCLE
5
204
100
AcDbEntity
8
0
100
AcDbCircle
10
7.5000000000000195
20
2.4999999999999796
30
0
40
0.11050000000000024
210
0
220
0
230
1
0
CIRCLE
5
205
100
AcDbEntity
8
0
100
AcDbCircle
10
-5.5
20
0.49999999999999978
30
0
40
0.11050000000000024
210
0
220
0
230
1
0
CIRCLE
5
206
100
AcDbEntity
8
0
100
AcDbCircle
10
7.5000000000000266
20
-1.4999999999999221
30
0
40
0.11050000000000024
210
0
220
0
230
1
0
CIRCLE
5
207
100
AcDbEntity
8
0
100
AcDbCircle
10
5.5000000000000275
20
-1.4999999999999414
30
0
40
0.11050000000000024
210
0
220
0
230
1
0
CIRCLE
5
208
100
AcDbEntity
8
0
100
AcDbCircle
10
5.5000000000000568
20
-4.4999999999999396
30
0
40
0.11050000000000024
210
0
220
0
230
1
0
CIRCLE
5
209
100
AcDbEntity
8
0
100
AcDbCircle
10
5.5000000000000178
20
1.4999999999999847
30
0
40
0.11050000000000024
210
0
220
0
230
1
0
CIRCLE
5
210
100
AcDbEntity
8
0
100
AcDbCircle
10
6.5000000000000169
20
-0.49999999999993144
30
0
40
0.11050000000000024
210
0
220
0
230
1
0
CIRCLE
5
211
100
AcDbEntity
8
0
100
AcDbCircle
10
4.5000000000000258
20
4.4999999999999867
30
0
40
0.11050000000000024
210
0
220
0
230
1
0
CIRCLE
5
212
100
AcDbEntity
8
0
100
AcDbCircle
10
3.5000000000000351
20
7.4999999999999902
30
0
40
0.11050000000000024
210
0
220
0
230
1
0
CIRCLE
5
213
100
AcDbEntity
8
0
100
AcDbCircle
10
7.5000000000000249
20
4.4999999999999787
30
0
40
0.11050000000000024
210
0
220
0
230
1
0
CIRCLE
5
214
100
AcDbEntity
8
0
100
AcDbCircle
10
5.500000000000032
20
6.4999999999999849
30
0
40
0.11050000000000024
210
0
220
0
230
1
0
CIRCLE
5
215
100
AcDbEntity
8
0
100
AcDbCircle
10
7.5000000000000462
20
-3.4999999999999214
30
0
40
0.11050000000000024
210
0
220
0
230
1
0
CIRCLE
5
216
100
AcDbEntity
8
0
100
AcDbCircle
10
0.50000000000003497
20
7.4999999999999982
30
0
40
0.11049999999999999
210
0
220
0
230
1
0
CIRCLE
5
217
100
AcDbEntity
8
0
100
AcDbCircle
10
4.5000000000000293
20
5.4999999999999876
30
0
40
0.11050000000000024
210
0
220
0
230
1
0
CIRCLE
5
218
100
AcDbEntity
8
0
100
AcDbCircle
10
3.5000000000000293
20
5.4999999999999902
30
0
40
0.11050000000000024
210
0
220
0
230
1
0
CIRCLE
5
219
100
AcDbEntity
8
0
100
AcDbCircle
10
4.500000000000032
20
6.4999999999999876
30
0
40
0.11050000000000024
210
0
220
0
230
1
0
CIRCLE
5
220
100
AcDbEntity
8
0
100
AcDbCircle
10
6.5000000000000284
20
5.4999999999999813
30
0
40
0.11050000000000024
210
0
220
0
230
1
0
CIRCLE
5
221
100
AcDbEntity
8
0
100
AcDbCircle
10
0.5000000000000292
20
5.4999999999999982
30
0
40
0.11049999999999999
210
0
220
0
230
1
0
CIRCLE
5
222
100
AcDbEntity
8
0
100
AcDbCircle
10
7.5000000000000835
20
-7.4999999999999227
30
0
40
0.11050000000000024
210
0
220
0
230
1
0
CIRCLE
5
223
100
AcDbEntity
8
0
100
AcDbCircle
10
6.5000000000000222
20
3.4999999999999818
30
0
40
0.11050000000000024
210
0
220
0
230
1
0
CIRCLE
5
224
100
AcDbEntity
8
0
100
AcDbCircle
10
5.5000000000000293
20
5.499999999999984
30
0
40
0.11050000000000024
210
0
220
0
230
1
0
CIRCLE
5
225
100
AcDbEntity
8
0
100
AcDbCircle
10
6.5000000000000338
20
7.4999999999999813
30
0
40
0.11050000000000024
210
0
220
0
230
1
0
CIRCLE
5
226
100
AcDbEntity
8
0
100
AcDbCircle
10
5.5000000000000204
20
2.4999999999999849
30
0
40
0.11050000000000024
210
0
220
0
230
1
0
CIRCLE
5
227
100
AcDbEntity
8
0
100
AcDbCircle
10
7.5000000000000329
20
7.4999999999999787
30
0
40
0.11050000000000024
210
0
220
0
230
1
0
CIRCLE
5
228
100
AcDbEntity
8
0
100
AcDbCircle
10
1.5000000000000351
20
7.4999999999999956
30
0
40
0.11050000000000024
210
0
220
0
230
1
0
CIRCLE
5
229
100
AcDbEntity
8
0
100
AcDbCircle
10
5.5000000000000266
20
4.499999999999984
30
0
40
0.11050000000000024
210
0
220
0
230
1
0
CIRCLE
5
230
100
AcDbEntity
8
0
100
AcDbCircle
10
1.5000000000000295
20
5.4999999999999956
30
0
40
0.11050000000000024
210
0
220
0
230
1
0
CIRCLE
5
231
100
AcDbEntity
8
0
100
AcDbCircle
10
4.5000000000000231
20
3.4999999999999871
30
0
40
0.11050000000000024
210
0
220
0
230
1
0
CIRCLE
5
232
100
AcDbEntity
8
0
100
AcDbCircle
10
2.5000000000000324
20
6.4999999999999929
30
0
40
0.11049999999999989
210
0
220
0
230
1
0
CIRCLE
5
233
100
AcDbEntity
8
0
100
AcDbCircle
10
-6.5
20
0.49999999999999978
30
0
40
0.11050000000000024
210
0
220
0
230
1
0
CIRCLE
5
234
100
AcDbEntity
8
0
100
AcDbCircle
10
-7.5
20
0.49999999999999978
30
0
40
0.11050000000000024
210
0
220
0
230
1
0
CIRCLE
5
235
100
AcDbEntity
8
0
100
AcDbCircle
10
-4.4999999999999991
20
5.5
30
0
40
0.11050000000000024
210
0
220
0
230
1
0
CIRCLE
5
236
100
AcDbEntity
8
0
100
AcDbCircle
10
1.5000000000000322
20
6.4999999999999956
30
0
40
0.11050000000000024
210
0
220
0
230
1
0
CIRCLE
5
237
100
AcDbEntity
8
0
100
AcDbCircle
10
-7.5
20
5.5
30
0
40
0.11050000000000024
210
0
220
0
230
1
0
CIRCLE
5
238
100
AcDbEntity
8
0
100
AcDbCircle
10
-6.5
20
5.5
30
0
40
0.11050000000000024
210
0
220
0
230
1
0
CIRCLE
5
239
100
AcDbEntity
8
0
100
AcDbCircle
10
-1.5
20
-5.5
30
0
40
0.11050000000000007
210
0
220
0
230
1
0
CIRCLE
5
240
100
AcDbEntity
8
0
100
AcDbCircle
10
-5.5
20
-1.5
30
0
40
0.11050000000000024
210
0
220
0
230
1
0
CIRCLE
5
241
100
AcDbEntity
8
0
100
AcDbCircle
10
-4.8857626562633438
20
-4.8857626562633474
30
0
40
0.41338582677165381
210
0
220
0
230
1
0
CIRCLE
5
242
100
AcDbEntity
8
0
100
AcDbCircle
10
-5.5
20
3.5
30
0
40
0.11050000000000024
210
0
220
0
230
1
0
CIRCLE
5
243
100
AcDbEntity
8
0
100
AcDbCircle
10
-2.5000000000000004
20
5.5
30
0
40
0.11049999999999989
210
0
220
0
230
1
0
CIRCLE
5
244
100
AcDbEntity
8
0
100
AcDbCircle
10
-7.5
20
3.5
30
0
40
0.11050000000000024
210
0
220
0
230
1
0
CIRCLE
5
245
100
AcDbEntity
8
0
100
AcDbCircle
10
0.50000000000003197
20
6.4999999999999991
30
0
40
0.11049999999999999
210
0
220
0
230
1
0
CIRCLE
5
246
100
AcDbEntity
8
0
100
AcDbCircle
10
-5.5
20
2.5000000000000004
30
0
40
0.11050000000000024
210
0
220
0
230
1
0
CIRCLE
5
247
100
AcDbEntity
8
0
100
AcDbCircle
10
-6.5
20
-0.49999999999999978
30
0
40
0.11050000000000024
210
0
220
0
230
1
0
CIRCLE
5
248
100
AcDbEntity
8
0
100
AcDbCircle
10
-6.5
20
3.5
30
0
40
0.11050000000000024
210
0
220
0
230
1
0
CIRCLE
5
249
100
AcDbEntity
8
0
100
AcDbCircle
10
-0.49999999999999978
20
-6.5
30
0
40
0.11049999999999999
210
0
220
0
230
1
0
CIRCLE
5
250
100
AcDbEntity
8
0
100
AcDbCircle
10
-6.5
20
2.5000000000000004
30
0
40
0.11050000000000024
210
0
220
0
230
1
0
CIRCLE
5
251
100
AcDbEntity
8
0
100
AcDbCircle
10
2.5000000000000355
20
7.4999999999999929
30
0
40
0.11049999999999989
210
0
220
0
230
1
0
CIRCLE
5
252
100
AcDbEntity
8
0
100
AcDbCircle
10
-0.49999999999999978
20
-5.5
30
0
40
0.11049999999999999
210
0
220
0
230
1
0
CIRCLE
5
253
100
AcDbEntity
8
0
100
AcDbCircle
10
-1.5
20
-6.5
30
0
40
0.11050000000000007
210
0
220
0
230
1
0
CIRCLE
5
254
100
AcDbEntity
8
0
100
AcDbCircle
10
-2.5000000000000004
20
-5.5
30
0
40
0.11049999999999989
210
0
220
0
230
1
0
CIRCLE
5
255
100
AcDbEntity
8
0
100
AcDbCircle
10
-4.4999999999999991
20
-6.5
30
0
40
0.11050000000000024
210
0
220
0
230
1
0
CIRCLE
5
256
100
AcDbEntity
8
0
100
AcDbCircle
10
-5.5
20
-2.5000000000000004
30
0
40
0.11050000000000024
210
0
220
0
230
1
0
CIRCLE
5
257
100
AcDbEntity
8
0
100
AcDbCircle
10
-6.5
20
-2.5000000000000004
30
0
40
0.11050000000000024
210
0
220
0
230
1
0
CIRCLE
5
258
100
AcDbEntity
8
0
100
AcDbCircle
10
2.5000000000000764
20
-6.4999999999999707
30
0
40
0.11049999999999989
210
0
220
0
230
1
0
CIRCLE
5
259
100
AcDbEntity
8
0
100
AcDbCircle
10
2.5000000000000666
20
-5.4999999999999689
30
0
40
0.11049999999999989
210
0
220
0
230
1
0
CIRCLE
5
260
100
AcDbEntity
8
0
100
AcDbCircle
10
1.5000000000000666
20
-5.4999999999999787
30
0
40
0.11050000000000007
210
0
220
0
230
1
0
CIRCLE
5
261
100
AcDbEntity
8
0
100
AcDbCircle
10
1.5000000000000762
20
-6.4999999999999787
30
0
40
0.11050000000000007
210
0
220
0
230
1
0
CIRCLE
5
262
100
AcDbEntity
8
0
100
AcDbCircle
10
1.5000000000000857
20
-7.4999999999999787
30
0
40
0.11049999999999989
210
0
220
0
230
1
0
CIRCLE
5
263
100
AcDbEntity
8
0
100
AcDbCircle
10
4.5000000000000853
20
-7.4999999999999503
30
0
40
0.11050000000000024
210
0
220
0
230
1
0
CIRCLE
5
264
100
AcDbEntity
8
0
100
AcDbCircle
10
7.500000000000056
20
-4.499999999999921
30
0
40
0.11050000000000024
210
0
220
0
230
1
0
CIRCLE
5
265
100
AcDbEntity
8
0
100
AcDbCircle
10
4.500000000000056
20
-4.4999999999999494
30
0
40
0.11050000000000024
210
0
220
0
230
1
0
CIRCLE
5
266
100
AcDbEntity
8
0
100
AcDbCircle
10
5.5000000000000666
20
-5.4999999999999396
30
0
40
0.11050000000000024
210
0
220
0
230
1
0
CIRCLE
5
267
100
AcDbEntity
8
0
100
AcDbCircle
10
7.5000000000000737
20
-6.4999999999999227
30
0
40
0.11050000000000024
210
0
220
0
230
1
0
CIRCLE
5
268
100
AcDbEntity
8
0
100
AcDbCircle
10
4.5000000000000657
20
-5.4999999999999494
30
0
40
0.11050000000000024
210
0
220
0
230
1
0
CIRCLE
5
269
100
AcDbEntity
8
0
100
AcDbCircle
10
0.5000000000000856
20
-7.4999999999999902
30
0
40
0.11049999999999999
210
0
220
0
230
1
0
CIRCLE
5
270
100
AcDbEntity
8
0
100
AcDbCircle
10
6.5000000000000746
20
-6.4999999999999316
30
0
40
0.11050000000000024
210
0
220
0
230
1
0
CIRCLE
5
271
100
AcDbEntity
8
0
100
AcDbCircle
10
7.5000000000000364
20
-2.4999999999999227
30
0
40
0.11050000000000024
210
0
220
0
230
1
0
CIRCLE
5
272
100
AcDbEntity
8
0
100
AcDbCircle
10
6.5000000000000364
20
-2.4999999999999316
30
0
40
0.11050000000000024
210
0
220
0
230
1
0
CIRCLE
5
273
100
AcDbEntity
8
0
100
AcDbCircle
10
-6.5
20
-6.5
30
0
40
0.32800000000000035
210
0
220
0
230
1
0
CIRCLE
5
274
100
AcDbEntity
8
0
100
AcDbCircle
10
-5.5
20
-0.49999999999999978
30
0
40
0.11050000000000024
210
0
220
0
230
1
0
CIRCLE
5
275
100
AcDbEntity
8
0
100
AcDbCircle
10
6.5000000000000462
20
-3.4999999999999316
30
0
40
0.11050000000000024
210
0
220
0
230
1
0
CIRCLE
5
276
100
AcDbEntity
8
0
100
AcDbCircle
10
6.5000000000000311
20
6.4999999999999822
30
0
40
0.11050000000000024
210
0
220
0
230
1
0
CIRCLE
5
277
100
AcDbEntity
8
0
100
AcDbCircle
10
5.5000000000000346
20
7.499999999999984
30
0
40
0.11050000000000024
210
0
220
0
230
1
0
CIRCLE
5
278
100
AcDbEntity
8
0
100
AcDbCircle
10
5.5000000000000187
20
-0.49999999999994088
30
0
40
0.11050000000000024
210
0
220
0
230
1
0
CIRCLE
5
279
100
AcDbEntity
8
0
100
AcDbCircle
10
4.5000000000000755
20
-6.4999999999999512
30
0
40
0.11050000000000024
210
0
220
0
230
1
0
CIRCLE
5
280
100
AcDbEntity
8
0
100
AcDbCircle
10
-4.4999999999999991
20
-7.5
30
0
40
0.11050000000000024
210
0
220
0
230
1
0
CIRCLE
5
281
100
AcDbEntity
8
0
100
AcDbCircle
10
-6.5
20
-7.5
30
0
40
0.11050000000000024
210
0
220
0
230
1
0
LWPOLYLINE
5
282
100
AcDbEntity
8
0
100
AcDbPolyline
90
4
70
1
43
0.0
10
8.0000000000000888
20
-7.9999999999999183
10
8.0000000000000355
20
7.9999999999999769
10
-7.9999999999999991
20
7.9999999999999991
10
-7.9999999999999991
20
-7.9999999999999991
0
CIRCLE
5
283
100
AcDbEntity
8
0
100
AcDbCircle
10
-4.41536573976712
20
-2.5492125984251932
30
0
40
0.11050000000000024
210
0
220
0
230
1
0
CIRCLE
5
284
100
AcDbEntity
8
0
100
AcDbCircle
10
-4.4153657397671235
20
2.5492125984251937
30
0
40
0.11050000000000024
210
0
220
0
230
1
0
CIRCLE
5
285
100
AcDbEntity
8
0
100
AcDbCircle
10
4.415365739767144
20
2.5492125984251817
30
0
40
0.11050000000000024
210
0
220
0
230
1
0
CIRCLE
5
286
100
AcDbEntity
8
0
100
AcDbCircle
10
4.4153657397671271
20
-2.5492125984252052
30
0
40
0.11050000000000024
210
0
220
0
230
1
0
ENDSEC
0
SECTION
2
OBJECTS
0
DICTIONARY
5
C
100
AcDbDictionary
3
ACAD_GROUP
350
D
3
ACAD_MLINESTYLE
350
17
0
DICTIONARY
5
D
100
AcDbDictionary
0
DICTIONARY
5
1A
330
C
100
AcDbDictionary
0
DICTIONARY
5
17
100
AcDbDictionary
0
ENDSEC
0
EOF
